<?xml version="1.0" encoding="utf-8"?>
<?xml-stylesheet type="text/xsl" href="rss1.xsl"?>
<rss version="2.0" xmlns:atom="http://www.w3.org/2005/Atom" xmlns:content="http://purl.org/rss/1.0/modules/content/" xmlns:dc="http://purl.org/dc/elements/1.1/" xmlns:media="http://search.yahoo.com/mrss/">
<channel>
 <title>Getty</title>
 <link>http://www.gettyimg.com/</link>
 <atom:link href="http://www.gettyimg.com/" rel="self" type="application/rss+xml" />

 
                <item>
                <title><![CDATA[【HD Live Performances】FEED - iHeartRadio Music Awards S01E10 2024 1080p HDTV Backhaul MPA2.0 H.264-TrollHD]]></title>
                <link><![CDATA[https://sharemania.us/threads/iheartradio-music-awards-s01e10-2024-1080p-hdtv-backhaul-mpa2-0-h-264-trollhd.244981/]]></link>
                <description><![CDATA[<article>
<blockquote class="messageText SelectQuoteContainer ugc baseHtml">
<div style="padding-left: 30px"><div style="padding-left: 30px"><div style="padding-left: 30px"><b><span style="font-size: 22px"><span style="color: rgb(255, 0, 0)">iHeartRadio Music Awards S01E10 2024 1080p</span></span></b><br>
<div style="padding-left: 30px"><b><span style="font-size: 22px"><span style="color: rgb(255, 0, 0)">HDTV Backhaul MPA2.0 H.264-TrollHD</span></span></b>​</div></div></div></div><br>
<img src="https://images2.imgbox.com/5f/72/ToNc7luZ_o.jpg" class="bbCodeImage LbImage" alt="[​IMG]" data-url="https://images2.imgbox.com/5f/72/ToNc7luZ_o.jpg" style=""><br>
<br>
<div class="bbCodeBlock bbCodeCode">
<div class="type">Code:</div>
<pre>General
Unique ID                      : 14519131876182645733924893192958571493 (0xAEC48783CE6F36BDCD859C4B5ECF3E5)
Format                         : Matroska
Format version                 : Version 4
File size                      : 17.4 GiB
Duration                       : 1 h 28 min
Overall bit rate mode          : Variable
Overall bit rate               : 28.3 Mb/s
Encoded date                   : UTC 2024-05-19 19:45:06
Writing application            : mkvmerge v77.0 ('Elemental') 64-bit
Writing library                : libebml v1.4.4 + libmatroska v1.7.1

Video
ID                             : 1
Format                         : AVC
Format/Info                    : Advanced Video Codec
Format profile                 : High 4:2:2@L4.2
Format settings                : CABAC / 4 Ref Frames
Format settings, CABAC         : Yes
Format settings, Reference fra : 4 frames
Codec ID                       : V_MPEG4/ISO/AVC
Duration                       : 1 h 28 min
Bit rate mode                  : Variable
Bit rate                       : 27.9 Mb/s
Maximum bit rate               : 29.5 Mb/s
Width                          : 1 920 pixels
Height                         : 1 080 pixels
Display aspect ratio           : 16:9
Frame rate mode                : Constant
Frame rate                     : 59.940 (60000/1001) FPS
Color space                    : YUV
Chroma subsampling             : 4:2:2
Bit depth                      : 8 bits
Scan type                      : Progressive
Bits/(Pixel*Frame)             : 0.225
Stream size                    : 17.2 GiB (99%)
Default                        : Yes
Forced                         : No
Color range                    : Limited
Color primaries                : BT.709
Transfer characteristics       : BT.709
Matrix coefficients            : BT.709

Audio
ID                             : 2
Format                         : MPEG Audio
Format version                 : Version 1
Format profile                 : Layer 2
Codec ID                       : A_MPEG/L2
Codec ID/Hint                  : MP2
Duration                       : 1 h 28 min
Bit rate mode                  : Constant
Bit rate                       : 384 kb/s
Channel(s)                     : 2 channels
Sampling rate                  : 48.0 kHz
Frame rate                     : 41.667 FPS (1152 SPF)
Compression mode               : Lossy
Stream size                    : 242 MiB (1%)
Language                       : English
Default                        : Yes
Forced                         : No

Menu
00:00:00.000                   : en:Justin Timberlake - Selfish + No Angels
00:16:51.000                   : en:Green Day - Bobby Sox + Basket Case
00:22:24.000                   : en:Tate McRae - Greedy + Exes
00:35:38.000                   : en:Jelly Roll + Lainey Wilson - Save Me
00:47:48.000                   : en:TLC + Latto - No Scrubs + Waterfall
00:58:44.000                   : en:Cher + Jennifer Hudson - If I Could Turn Back Time + Believe
01:19:03.000                   : en:Ludacris + T-Pain - Yeah! + All I Do is Win + Move Beach

</pre>
</div>
<div class="bbCodeBlock bbCodeVfcHH HiddenContent">
<div class="attribution type">Hidden Content:</div>
<blockquote>You must either reply or click 'Like' to see the hidden information contained here.</blockquote>
</div><br>
<br>
<b><span style="color: rgb(255, 0, 0)">Credits goes to <a href="https://sharemania.us/members/1219/" class="username" data-user="1219, @TrollHD">@TrollHD</a> !!!<br>
<br>
<img src="styles/default/xenforo/smilies/super_man-48.png" class="mceSmilie" alt=":super:" title="Super Man    :super:"><img src="styles/default/xenforo/smilies/super_man-48.png" class="mceSmilie" alt=":super:" title="Super Man    :super:"><img src="styles/default/xenforo/smilies/super_man-48.png" class="mceSmilie" alt=":super:" title="Super Man    :super:"></span></b>
<div class="messageTextEndMarker">&nbsp;</div>
</blockquote>
</article>]]></description>
                <author><![CDATA[Dream66]]></author>
                </item>

                
                <item>
                <title><![CDATA[【Requests】[REQ PIC] - Billie eilish hit me hard ans soft cover &amp; vinyl backcover]]></title>
                <link><![CDATA[https://sharemania.us/threads/billie-eilish-hit-me-hard-ans-soft-cover-vinyl-backcover.244980/]]></link>
                <description><![CDATA[<article>
<blockquote class="messageText SelectQuoteContainer ugc baseHtml">
thanks
<div class="messageTextEndMarker">&nbsp;</div>
</blockquote>
</article>]]></description>
                <author><![CDATA[tjdeo0405]]></author>
                </item>

                </channel></rss>